<svg xmlns="http://www.w3.org/2000/svg" viewBox="-75.34 -53.73 779.11 779.11" role="img" aria-label="Waypoint">
  <title>Waypoint</title>

  <!-- Background (remove this rect for a transparent logo) -->
  <rect x="-75.34" y="-53.73" width="779.11" height="779.11" fill="#FFFFFF"/>

  <g transform="translate(-198,850.647530) scale(0.1,-0.1)">
    <!-- Winding road: two tapered ribbons converging toward the horizon -->
    <path fill="#121212" d="M5015 7461 c-29 -18 -321 -187 -380 -221 -148 -84 -380 -253 -465
-339 -181 -183 -140 -331 130 -470 129 -66 314 -136 746 -280 644 -215 737
-248 1039 -369 820 -327 1334 -681 1607 -1107 261 -405 319 -909 173 -1485
-89 -352 -306 -803 -596 -1243 l-101 -152 368 -3 c202 -1 371 1 374 5 11 12
126 355 159 473 188 665 238 1177 161 1640 -130 778 -590 1309 -1550 1790
-381 191 -757 331 -1490 555 -796 243 -980 333 -982 479 -2 126 221 329 725
661 100 66 127 86 115 85 -2 0 -16 -9 -33 -19z"/>
    <path fill="#121212" d="M4425 7345 c-1031 -258 -1463 -422 -1685 -639 -151 -148 -149 -313 7
-478 158 -166 320 -261 1093 -645 606 -301 758 -389 933 -538 64 -55 175 -185
203 -240 196 -378 -120 -869 -1066 -1656 -105 -88 -321 -252 -655 -499 -112
-83 -490 -344 -640 -442 -88 -58 -227 -149 -310 -203 -82 -54 -189 -122 -237
-152 -49 -30 -88 -56 -88 -59 0 -2 290 -4 645 -4 l645 0 93 82 c168 150 840
830 1016 1028 549 618 819 1049 902 1435 20 98 25 251 9 333 -27 147 -119 308
-246 435 -230 229 -499 381 -1369 772 -692 311 -946 528 -846 724 44 84 210
206 416 302 206 97 694 271 1055 377 122 36 371 110 540 161 149 44 9 13 -415
-94z"/>

    <!-- Distant map pin at the horizon (evenodd punches the white center) -->
    <path fill="#A4193D" fill-rule="evenodd" d="M5035 8497 c-92 -31 -163 -84 -198 -151 -87 -165 -57 -308 124 -581
71 -109 149 -213 159 -214 8 -1 116 146 180 244 68 105 135 246 149 315 30
147 -57 310 -197 372 -58 25 -163 32 -217 15z m169 -187 c130 -85 82 -284 -71
-297 -127 -10 -220 146 -146 246 52 70 153 94 217 51z"/>
  </g>
</svg>
